<svg width="24" height="24" viewBox="0 0 24 24" fill="none" xmlns="http://www.w3.org/2000/svg">
<path d="M3.48516 21.0243L4.21311 21.4478C6.62525 22.8511 9.71922 22.0083 11.0863 19.5755L11.9128 18.1047C11.951 18.0367 12.049 18.0367 12.0872 18.1047L15.3503 23.9115C15.3776 23.9602 15.4395 23.977 15.4877 23.949L16.3423 23.4518C18.704 22.0778 19.5254 19.0625 18.1869 16.6805L17.2837 15.0734C17.2463 15.0067 17.2944 14.9244 17.3709 14.9244H23.9C23.9552 14.9244 24 14.8796 24 14.8244V13.874C24 11.1125 21.7614 8.87395 19 8.87395H17.3738C17.2967 8.87395 17.2486 8.79036 17.2873 8.72369L20.5498 3.11163C20.5775 3.0639 20.5613 3.00271 20.5136 2.97494L19.7233 2.51516C17.3358 1.12621 14.2744 1.93621 12.8863 4.32413L12.0865 5.70002C12.0479 5.76634 11.9521 5.76634 11.9135 5.70002L8.65027 0.0864825C8.62251 0.0387242 8.56128 0.0225245 8.51353 0.0503035L7.72038 0.511737C5.33407 1.90003 4.52454 4.95965 5.91202 7.34643L6.71266 8.72369C6.75141 8.79036 6.70331 8.87395 6.6262 8.87395H0.1C0.0447715 8.87395 0 8.91872 0 8.97395V9.92437C0 12.6858 2.23858 14.9244 5 14.9244H6.6291C6.70556 14.9244 6.75374 15.0067 6.71628 15.0734L3.44826 20.8889C3.42149 20.9365 3.43792 20.9969 3.48516 21.0243Z" fill="url(#paint0_linear_28_8)"/>
<defs>
<linearGradient id="paint0_linear_28_8" x1="6.26087" y1="3.13044" x2="17.2174" y2="22.4348" gradientUnits="userSpaceOnUse">
<stop stop-color="#3EDCFF"/>
<stop offset="1" stop-color="#259992"/>
</linearGradient>
</defs>
</svg>
