<svg width="28" height="28" viewBox="0 0 28 28" fill="none" xmlns="http://www.w3.org/2000/svg">
<rect width="28" height="28" rx="4" fill="white"/>
<path d="M5.48516 23.0243L6.21311 23.4478C8.62525 24.8511 11.7192 24.0083 13.0863 21.5755L13.9128 20.1047C13.951 20.0367 14.049 20.0367 14.0872 20.1047L17.3503 25.9115C17.3776 25.9602 17.4395 25.977 17.4877 25.949L18.3423 25.4518C20.704 24.0778 21.5254 21.0625 20.1869 18.6805L19.2837 17.0734C19.2463 17.0067 19.2944 16.9244 19.3709 16.9244H25.9C25.9552 16.9244 26 16.8796 26 16.8244V15.874C26 13.1125 23.7614 10.8739 21 10.8739H19.3738C19.2967 10.8739 19.2486 10.7904 19.2873 10.7237L22.5498 5.11163C22.5775 5.0639 22.5613 5.00271 22.5136 4.97494L21.7233 4.51516C19.3358 3.12621 16.2744 3.93621 14.8863 6.32413L14.0865 7.70002C14.0479 7.76634 13.9521 7.76634 13.9135 7.70002L10.6503 2.08648C10.6225 2.03872 10.5613 2.02252 10.5135 2.0503L9.72038 2.51174C7.33407 3.90003 6.52454 6.95965 7.91202 9.34643L8.71266 10.7237C8.75141 10.7904 8.70331 10.8739 8.6262 10.8739H2.1C2.04477 10.8739 2 10.9187 2 10.9739V11.9244C2 14.6858 4.23858 16.9244 7 16.9244H8.6291C8.70556 16.9244 8.75374 17.0067 8.71628 17.0734L5.44826 22.8889C5.42149 22.9365 5.43792 22.9969 5.48516 23.0243Z" fill="url(#paint0_linear_197_6)"/>
<defs>
<linearGradient id="paint0_linear_197_6" x1="8.26087" y1="5.13044" x2="19.2174" y2="24.4348" gradientUnits="userSpaceOnUse">
<stop stop-color="#3EDCFF"/>
<stop offset="1" stop-color="#259992"/>
</linearGradient>
</defs>
</svg>
